<svg xmlns="http://www.w3.org/2000/svg" xmlns:xlink="http://www.w3.org/1999/xlink" width="70" height="70" viewBox="0 0 70 70">
	<g>
		<g>
			<path d="M0,0H70V70H0Z" fill="none"/>
			<path d="M61.25,18.708H52l-5.338-5.833h-17.5v5.833H44.1l5.338,5.833H61.25v35H14.583V33.292H8.75v26.25a5.85,5.85,0,0,0,5.833,5.833H61.25a5.85,5.85,0,0,0,5.833-5.833v-35A5.85,5.85,0,0,0,61.25,18.708ZM23.333,42.042A14.583,14.583,0,1,0,37.917,27.458,14.589,14.589,0,0,0,23.333,42.042Zm14.583-8.75a8.75,8.75,0,1,1-8.75,8.75A8.776,8.776,0,0,1,37.917,33.292ZM14.583,18.708h8.75V12.875h-8.75V4.125H8.75v8.75H0v5.833H8.75v8.75h5.833Z"/>
		</g>
	</g>
</svg>