<svg xmlns="http://www.w3.org/2000/svg" xmlns:xlink="http://www.w3.org/1999/xlink" width="50" height="50" viewBox="0 0 50 50">
	<g>
		<path d="M0,0H50V50H0Z" fill="none"/>
		<path d="M41.167,13.833H32.833V9.667L28.667,5.5H20.333L16.167,9.667v4.167H7.833A4.179,4.179,0,0,0,3.667,18V28.417a4.133,4.133,0,0,0,2.083,3.6v6.813A4.152,4.152,0,0,0,9.917,43H39.083a4.152,4.152,0,0,0,4.167-4.167V32a4.194,4.194,0,0,0,2.083-3.583V18A4.179,4.179,0,0,0,41.167,13.833ZM20.333,9.667h8.333v4.167H20.333ZM7.833,18H41.167V28.417H30.75v-6.25H18.25v6.25H7.833Zm18.75,12.5H22.417V26.333h4.167Zm12.5,8.333H9.917v-6.25H18.25v2.083h12.5V32.583h8.333Z"/>
	</g>
</svg>