<?xml version="1.0" encoding="utf-8"?>
<!-- Generator: Adobe Illustrator 21.0.0, SVG Export Plug-In . SVG Version: 6.00 Build 0)  -->
<svg version="1.1" xmlns="http://www.w3.org/2000/svg" xmlns:xlink="http://www.w3.org/1999/xlink" x="0px" y="0px"
	 viewBox="0 0 417 345.5" style="enable-background:new 0 0 417 345.5;" xml:space="preserve">
<style type="text/css">
	.st0{fill-rule:evenodd;clip-rule:evenodd;}
</style>
<g id="Направляющие_для_монтажной_области">
</g>
<g id="Слой_1">
	<g>
		<path class="st0" d="M3.2,2.1c8,0,14.3,4.9,20.5,9.7c3.6,2.8,7.2,5.6,8.9,5.6c1.7,0,5.3-2.8,8.9-5.6c6.2-4.9,12.4-9.7,20.5-9.7
			c8,0,14.3,4.9,20.5,9.7c3.6,2.8,7.2,5.6,8.9,5.6c1.7,0,5.3-2.8,8.9-5.6c6.2-4.9,12.4-9.7,20.5-9.7c8,0,14.2,4.9,20.5,9.7
			c3.6,2.8,7.2,5.6,8.9,5.6c1.7,0,5.3-2.8,8.9-5.6c6.2-4.9,12.4-9.7,20.5-9.7c8,0,14.2,4.9,20.5,9.7c3.6,2.8,7.2,5.6,8.9,5.6
			c1.7,0,5.3-2.8,8.9-5.6c6.2-4.9,12.4-9.7,20.5-9.7c8,0,14.3,4.9,20.5,9.7c3.6,2.8,7.2,5.6,8.9,5.6c1.7,0,5.3-2.8,8.9-5.6
			c6.2-4.9,12.4-9.7,20.5-9.7c8,0,14.3,4.9,20.5,9.7c3.6,2.8,7.2,5.6,8.9,5.6c1.7,0,5.3-2.8,8.9-5.6c6.2-4.9,12.4-9.7,20.5-9.7
			c8,0,14.3,4.9,20.5,9.7c3.6,2.8,7.2,5.6,8.9,5.6c1.7,0,5.3-2.8,8.9-5.6c6.2-4.9,12.4-9.7,20.5-9.7v20.2c-1.7,0-5.3,2.8-8.9,5.6
			c-6.2,4.9-12.4,9.7-20.5,9.7c-8,0-14.3-4.9-20.5-9.7c-3.6-2.8-7.2-5.6-8.9-5.6c-1.7,0-5.3,2.8-8.9,5.6c-6.2,4.9-12.4,9.7-20.5,9.7
			c-8,0-14.3-4.9-20.5-9.7c-3.6-2.8-7.2-5.6-8.9-5.6c-1.7,0-5.3,2.8-8.9,5.6c-6.2,4.9-12.4,9.7-20.5,9.7c-8,0-14.3-4.9-20.5-9.7
			c-3.6-2.8-7.2-5.6-8.9-5.6c-1.7,0-5.3,2.8-8.9,5.6c-6.2,4.9-12.4,9.7-20.5,9.7c-8,0-14.3-4.9-20.5-9.7c-3.6-2.8-7.2-5.6-8.9-5.6
			c-1.7,0-5.3,2.8-8.9,5.6c-6.2,4.9-12.4,9.7-20.5,9.7c-8,0-14.2-4.9-20.5-9.7c-3.6-2.8-7.2-5.6-8.9-5.6c-1.7,0-5.3,2.8-8.9,5.6
			c-6.2,4.9-12.4,9.7-20.5,9.7c-8,0-14.3-4.9-20.5-9.7c-3.6-2.8-7.2-5.6-8.9-5.6c-1.7,0-5.3,2.8-8.9,5.6c-6.2,4.9-12.4,9.7-20.5,9.7
			c-8,0-14.2-4.9-20.5-9.7c-3.6-2.8-7.2-5.6-8.9-5.6V2.1z"/>
		<path class="st0" d="M3.2,45.5c8,0,14.3,4.9,20.5,9.7c3.6,2.8,7.2,5.6,8.9,5.6c1.7,0,5.3-2.8,8.9-5.6c6.2-4.9,12.4-9.7,20.5-9.7
			c8,0,14.3,4.9,20.5,9.7c3.6,2.8,7.2,5.6,8.9,5.6c1.7,0,5.3-2.8,8.9-5.6c6.2-4.9,12.4-9.7,20.5-9.7c8,0,14.2,4.9,20.5,9.7
			c3.6,2.8,7.2,5.6,8.9,5.6c1.7,0,5.3-2.8,8.9-5.6c6.2-4.9,12.4-9.7,20.5-9.7c8,0,14.2,4.9,20.5,9.7c3.6,2.8,7.2,5.6,8.9,5.6
			c1.7,0,5.3-2.8,8.9-5.6c6.2-4.9,12.4-9.7,20.5-9.7c8,0,14.3,4.9,20.5,9.7c3.6,2.8,7.2,5.6,8.9,5.6c1.7,0,5.3-2.8,8.9-5.6
			c6.2-4.9,12.4-9.7,20.5-9.7c8,0,14.3,4.9,20.5,9.7c3.6,2.8,7.2,5.6,8.9,5.6c1.7,0,5.3-2.8,8.9-5.6c6.2-4.9,12.4-9.7,20.5-9.7
			c8,0,14.3,4.9,20.5,9.7c3.6,2.8,7.2,5.6,8.9,5.6c1.7,0,5.3-2.8,8.9-5.6c6.2-4.9,12.4-9.7,20.5-9.7v20.2c-1.7,0-5.3,2.8-8.9,5.6
			c-6.2,4.9-12.4,9.7-20.5,9.7c-8,0-14.3-4.9-20.5-9.7c-3.6-2.8-7.2-5.6-8.9-5.6c-1.7,0-5.3,2.8-8.9,5.6c-6.2,4.9-12.4,9.7-20.5,9.7
			c-8,0-14.3-4.9-20.5-9.7c-3.6-2.8-7.2-5.6-8.9-5.6c-1.7,0-5.3,2.8-8.9,5.6c-6.2,4.9-12.4,9.7-20.5,9.7c-8,0-14.3-4.9-20.5-9.7
			c-3.6-2.8-7.2-5.6-8.9-5.6c-1.7,0-5.3,2.8-8.9,5.6c-6.2,4.9-12.4,9.7-20.5,9.7c-8,0-14.3-4.9-20.5-9.7c-3.6-2.8-7.2-5.6-8.9-5.6
			c-1.7,0-5.3,2.8-8.9,5.6c-6.2,4.9-12.4,9.7-20.5,9.7c-8,0-14.2-4.9-20.5-9.7c-3.6-2.8-7.2-5.6-8.9-5.6c-1.7,0-5.3,2.8-8.9,5.6
			c-6.2,4.9-12.4,9.7-20.5,9.7c-8,0-14.3-4.9-20.5-9.7c-3.6-2.8-7.2-5.6-8.9-5.6c-1.7,0-5.3,2.8-8.9,5.6C46.8,76.2,40.6,81,32.5,81
			c-8,0-14.2-4.9-20.5-9.7c-3.6-2.8-7.2-5.6-8.9-5.6V45.5z"/>
		<path class="st0" d="M3.2,88.8c8,0,14.3,4.9,20.5,9.7c3.6,2.8,7.2,5.6,8.9,5.6c1.7,0,5.3-2.8,8.9-5.6c6.2-4.9,12.4-9.7,20.5-9.7
			c8,0,14.3,4.9,20.5,9.7c3.6,2.8,7.2,5.6,8.9,5.6c1.7,0,5.3-2.8,8.9-5.6c6.2-4.9,12.4-9.7,20.5-9.7c8,0,14.2,4.9,20.5,9.7
			c3.6,2.8,7.2,5.6,8.9,5.6c1.7,0,5.3-2.8,8.9-5.6c6.2-4.9,12.4-9.7,20.5-9.7c8,0,14.2,4.9,20.5,9.7c3.6,2.8,7.2,5.6,8.9,5.6
			c1.7,0,5.3-2.8,8.9-5.6c6.2-4.9,12.4-9.7,20.5-9.7c8,0,14.3,4.9,20.5,9.7c3.6,2.8,7.2,5.6,8.9,5.6c1.7,0,5.3-2.8,8.9-5.6
			c6.2-4.9,12.4-9.7,20.5-9.7c8,0,14.3,4.9,20.5,9.7c3.6,2.8,7.2,5.6,8.9,5.6c1.7,0,5.3-2.8,8.9-5.6c6.2-4.9,12.4-9.7,20.5-9.7
			c8,0,14.3,4.9,20.5,9.7c3.6,2.8,7.2,5.6,8.9,5.6c1.7,0,5.3-2.8,8.9-5.6c6.2-4.9,12.4-9.7,20.5-9.7v20.2c-1.7,0-5.3,2.8-8.9,5.6
			c-6.2,4.9-12.4,9.7-20.5,9.7c-8,0-14.3-4.9-20.5-9.7c-3.6-2.8-7.2-5.6-8.9-5.6c-1.7,0-5.3,2.8-8.9,5.6c-6.2,4.9-12.4,9.7-20.5,9.7
			c-8,0-14.3-4.9-20.5-9.7c-3.6-2.8-7.2-5.6-8.9-5.6c-1.7,0-5.3,2.8-8.9,5.6c-6.2,4.9-12.4,9.7-20.5,9.7c-8,0-14.3-4.9-20.5-9.7
			c-3.6-2.8-7.2-5.6-8.9-5.6c-1.7,0-5.3,2.8-8.9,5.6c-6.2,4.9-12.4,9.7-20.5,9.7c-8,0-14.3-4.9-20.5-9.7c-3.6-2.8-7.2-5.6-8.9-5.6
			c-1.7,0-5.3,2.8-8.9,5.6c-6.2,4.9-12.4,9.7-20.5,9.7c-8,0-14.2-4.9-20.5-9.7c-3.6-2.8-7.2-5.6-8.9-5.6c-1.7,0-5.3,2.8-8.9,5.6
			c-6.2,4.9-12.4,9.7-20.5,9.7c-8,0-14.3-4.9-20.5-9.7c-3.6-2.8-7.2-5.6-8.9-5.6c-1.7,0-5.3,2.8-8.9,5.6c-6.2,4.9-12.4,9.7-20.5,9.7
			c-8,0-14.2-4.9-20.5-9.7c-3.6-2.8-7.2-5.6-8.9-5.6V88.8z"/>
		<path class="st0" d="M3.2,132.2c8,0,14.3,4.9,20.5,9.7c3.6,2.8,7.2,5.6,8.9,5.6c1.7,0,5.3-2.8,8.9-5.6c6.2-4.9,12.4-9.7,20.5-9.7
			c8,0,14.3,4.9,20.5,9.7c3.6,2.8,7.2,5.6,8.9,5.6c1.7,0,5.3-2.8,8.9-5.6c6.2-4.9,12.4-9.7,20.5-9.7c8,0,14.2,4.9,20.5,9.7
			c3.6,2.8,7.2,5.6,8.9,5.6c1.7,0,5.3-2.8,8.9-5.6c6.2-4.9,12.4-9.7,20.5-9.7c8,0,14.2,4.9,20.5,9.7c3.6,2.8,7.2,5.6,8.9,5.6
			c1.7,0,5.3-2.8,8.9-5.6c6.2-4.9,12.4-9.7,20.5-9.7c8,0,14.3,4.9,20.5,9.7c3.6,2.8,7.2,5.6,8.9,5.6c1.7,0,5.3-2.8,8.9-5.6
			c6.2-4.9,12.4-9.7,20.5-9.7c8,0,14.3,4.9,20.5,9.7c3.6,2.8,7.2,5.6,8.9,5.6c1.7,0,5.3-2.8,8.9-5.6c6.2-4.9,12.4-9.7,20.5-9.7
			c8,0,14.3,4.9,20.5,9.7c3.6,2.8,7.2,5.6,8.9,5.6c1.7,0,5.3-2.8,8.9-5.6c6.2-4.9,12.4-9.7,20.5-9.7v20.2c-1.7,0-5.3,2.8-8.9,5.6
			c-6.2,4.9-12.4,9.7-20.5,9.7c-8,0-14.3-4.9-20.5-9.7c-3.6-2.8-7.2-5.6-8.9-5.6c-1.7,0-5.3,2.8-8.9,5.6c-6.2,4.9-12.4,9.7-20.5,9.7
			c-8,0-14.3-4.9-20.5-9.7c-3.6-2.8-7.2-5.6-8.9-5.6c-1.7,0-5.3,2.8-8.9,5.6c-6.2,4.9-12.4,9.7-20.5,9.7c-8,0-14.3-4.9-20.5-9.7
			c-3.6-2.8-7.2-5.6-8.9-5.6c-1.7,0-5.3,2.8-8.9,5.6c-6.2,4.9-12.4,9.7-20.5,9.7c-8,0-14.3-4.9-20.5-9.7c-3.6-2.8-7.2-5.6-8.9-5.6
			c-1.7,0-5.3,2.8-8.9,5.6c-6.2,4.9-12.4,9.7-20.5,9.7c-8,0-14.2-4.9-20.5-9.7c-3.6-2.8-7.2-5.6-8.9-5.6c-1.7,0-5.3,2.8-8.9,5.6
			c-6.2,4.9-12.4,9.7-20.5,9.7c-8,0-14.3-4.9-20.5-9.7c-3.6-2.8-7.2-5.6-8.9-5.6c-1.7,0-5.3,2.8-8.9,5.6c-6.2,4.9-12.4,9.7-20.5,9.7
			c-8,0-14.2-4.9-20.5-9.7c-3.6-2.8-7.2-5.6-8.9-5.6V132.2z"/>
		<path class="st0" d="M3.2,175.6c8,0,14.3,4.9,20.5,9.7c3.6,2.8,7.2,5.6,8.9,5.6c1.7,0,5.3-2.8,8.9-5.6c6.2-4.9,12.4-9.7,20.5-9.7
			c8,0,14.3,4.9,20.5,9.7c3.6,2.8,7.2,5.6,8.9,5.6c1.7,0,5.3-2.8,8.9-5.6c6.2-4.9,12.4-9.7,20.5-9.7c8,0,14.2,4.9,20.5,9.7
			c3.6,2.8,7.2,5.6,8.9,5.6c1.7,0,5.3-2.8,8.9-5.6c6.2-4.9,12.4-9.7,20.5-9.7c8,0,14.2,4.9,20.5,9.7c3.6,2.8,7.2,5.6,8.9,5.6
			c1.7,0,5.3-2.8,8.9-5.6c6.2-4.9,12.4-9.7,20.5-9.7c8,0,14.3,4.9,20.5,9.7c3.6,2.8,7.2,5.6,8.9,5.6c1.7,0,5.3-2.8,8.9-5.6
			c6.2-4.9,12.4-9.7,20.5-9.7c8,0,14.3,4.9,20.5,9.7c3.6,2.8,7.2,5.6,8.9,5.6c1.7,0,5.3-2.8,8.9-5.6c6.2-4.9,12.4-9.7,20.5-9.7
			c8,0,14.3,4.9,20.5,9.7c3.6,2.8,7.2,5.6,8.9,5.6c1.7,0,5.3-2.8,8.9-5.6c6.2-4.9,12.4-9.7,20.5-9.7v20.2c-1.7,0-5.3,2.8-8.9,5.6
			c-6.2,4.9-12.4,9.7-20.5,9.7c-8,0-14.3-4.9-20.5-9.7c-3.6-2.8-7.2-5.6-8.9-5.6c-1.7,0-5.3,2.8-8.9,5.6c-6.2,4.9-12.4,9.7-20.5,9.7
			c-8,0-14.3-4.9-20.5-9.7c-3.6-2.8-7.2-5.6-8.9-5.6c-1.7,0-5.3,2.8-8.9,5.6c-6.2,4.9-12.4,9.7-20.5,9.7c-8,0-14.3-4.9-20.5-9.7
			c-3.6-2.8-7.2-5.6-8.9-5.6c-1.7,0-5.3,2.8-8.9,5.6c-6.2,4.9-12.4,9.7-20.5,9.7c-8,0-14.3-4.9-20.5-9.7c-3.6-2.8-7.2-5.6-8.9-5.6
			c-1.7,0-5.3,2.8-8.9,5.6c-6.2,4.9-12.4,9.7-20.5,9.7c-8,0-14.2-4.9-20.5-9.7c-3.6-2.8-7.2-5.6-8.9-5.6c-1.7,0-5.3,2.8-8.9,5.6
			c-6.2,4.9-12.4,9.7-20.5,9.7c-8,0-14.3-4.9-20.5-9.7c-3.6-2.8-7.2-5.6-8.9-5.6c-1.7,0-5.3,2.8-8.9,5.6c-6.2,4.9-12.4,9.7-20.5,9.7
			c-8,0-14.2-4.9-20.5-9.7c-3.6-2.8-7.2-5.6-8.9-5.6V175.6z"/>
		<path class="st0" d="M3.2,219c8,0,14.3,4.9,20.5,9.7c3.6,2.8,7.2,5.6,8.9,5.6c1.7,0,5.3-2.8,8.9-5.6c6.2-4.9,12.4-9.7,20.5-9.7
			c8,0,14.3,4.9,20.5,9.7c3.6,2.8,7.2,5.6,8.9,5.6c1.7,0,5.3-2.8,8.9-5.6c6.2-4.9,12.4-9.7,20.5-9.7c8,0,14.2,4.9,20.5,9.7
			c3.6,2.8,7.2,5.6,8.9,5.6c1.7,0,5.3-2.8,8.9-5.6c6.2-4.9,12.4-9.7,20.5-9.7c8,0,14.2,4.9,20.5,9.7c3.6,2.8,7.2,5.6,8.9,5.6
			c1.7,0,5.3-2.8,8.9-5.6c6.2-4.9,12.4-9.7,20.5-9.7c8,0,14.3,4.9,20.5,9.7c3.6,2.8,7.2,5.6,8.9,5.6c1.7,0,5.3-2.8,8.9-5.6
			c6.2-4.9,12.4-9.7,20.5-9.7c8,0,14.3,4.9,20.5,9.7c3.6,2.8,7.2,5.6,8.9,5.6c1.7,0,5.3-2.8,8.9-5.6c6.2-4.9,12.4-9.7,20.5-9.7
			c8,0,14.3,4.9,20.5,9.7c3.6,2.8,7.2,5.6,8.9,5.6c1.7,0,5.3-2.8,8.9-5.6c6.2-4.9,12.4-9.7,20.5-9.7v20.2c-1.7,0-5.3,2.8-8.9,5.6
			c-6.2,4.9-12.4,9.7-20.5,9.7c-8,0-14.3-4.9-20.5-9.7c-3.6-2.8-7.2-5.6-8.9-5.6c-1.7,0-5.3,2.8-8.9,5.6c-6.2,4.9-12.4,9.7-20.5,9.7
			c-8,0-14.3-4.9-20.5-9.7c-3.6-2.8-7.2-5.6-8.9-5.6c-1.7,0-5.3,2.8-8.9,5.6c-6.2,4.9-12.4,9.7-20.5,9.7c-8,0-14.3-4.9-20.5-9.7
			c-3.6-2.8-7.2-5.6-8.9-5.6c-1.7,0-5.3,2.8-8.9,5.6c-6.2,4.9-12.4,9.7-20.5,9.7c-8,0-14.3-4.9-20.5-9.7c-3.6-2.8-7.2-5.6-8.9-5.6
			c-1.7,0-5.3,2.8-8.9,5.6c-6.2,4.9-12.4,9.7-20.5,9.7c-8,0-14.2-4.9-20.5-9.7c-3.6-2.8-7.2-5.6-8.9-5.6c-1.7,0-5.3,2.8-8.9,5.6
			c-6.2,4.9-12.4,9.7-20.5,9.7c-8,0-14.3-4.9-20.5-9.7c-3.6-2.8-7.2-5.6-8.9-5.6c-1.7,0-5.3,2.8-8.9,5.6c-6.2,4.9-12.4,9.7-20.5,9.7
			c-8,0-14.2-4.9-20.5-9.7c-3.6-2.8-7.2-5.6-8.9-5.6V219z"/>
		<path class="st0" d="M3.2,262.4c8,0,14.3,4.9,20.5,9.7c3.6,2.8,7.2,5.6,8.9,5.6c1.7,0,5.3-2.8,8.9-5.6c6.2-4.9,12.4-9.7,20.5-9.7
			c8,0,14.3,4.9,20.5,9.7c3.6,2.8,7.2,5.6,8.9,5.6c1.7,0,5.3-2.8,8.9-5.6c6.2-4.9,12.4-9.7,20.5-9.7c8,0,14.2,4.9,20.5,9.7
			c3.6,2.8,7.2,5.6,8.9,5.6c1.7,0,5.3-2.8,8.9-5.6c6.2-4.9,12.4-9.7,20.5-9.7c8,0,14.2,4.9,20.5,9.7c3.6,2.8,7.2,5.6,8.9,5.6
			c1.7,0,5.3-2.8,8.9-5.6c6.2-4.9,12.4-9.7,20.5-9.7c8,0,14.3,4.9,20.5,9.7c3.6,2.8,7.2,5.6,8.9,5.6c1.7,0,5.3-2.8,8.9-5.6
			c6.2-4.9,12.4-9.7,20.5-9.7c8,0,14.3,4.9,20.5,9.7c3.6,2.8,7.2,5.6,8.9,5.6c1.7,0,5.3-2.8,8.9-5.6c6.2-4.9,12.4-9.7,20.5-9.7
			c8,0,14.3,4.9,20.5,9.7c3.6,2.8,7.2,5.6,8.9,5.6c1.7,0,5.3-2.8,8.9-5.6c6.2-4.9,12.4-9.7,20.5-9.7v20.2c-1.7,0-5.3,2.8-8.9,5.6
			c-6.2,4.9-12.4,9.7-20.5,9.7c-8,0-14.3-4.9-20.5-9.7c-3.6-2.8-7.2-5.6-8.9-5.6c-1.7,0-5.3,2.8-8.9,5.6c-6.2,4.9-12.4,9.7-20.5,9.7
			c-8,0-14.3-4.9-20.5-9.7c-3.6-2.8-7.2-5.6-8.9-5.6c-1.7,0-5.3,2.8-8.9,5.6c-6.2,4.9-12.4,9.7-20.5,9.7c-8,0-14.3-4.9-20.5-9.7
			c-3.6-2.8-7.2-5.6-8.9-5.6c-1.7,0-5.3,2.8-8.9,5.6c-6.2,4.9-12.4,9.7-20.5,9.7c-8,0-14.3-4.9-20.5-9.7c-3.6-2.8-7.2-5.6-8.9-5.6
			c-1.7,0-5.3,2.8-8.9,5.6c-6.2,4.9-12.4,9.7-20.5,9.7c-8,0-14.2-4.9-20.5-9.7c-3.6-2.8-7.2-5.6-8.9-5.6c-1.7,0-5.3,2.8-8.9,5.6
			c-6.2,4.9-12.4,9.7-20.5,9.7c-8,0-14.3-4.9-20.5-9.7c-3.6-2.8-7.2-5.6-8.9-5.6c-1.7,0-5.3,2.8-8.9,5.6c-6.2,4.9-12.4,9.7-20.5,9.7
			c-8,0-14.2-4.9-20.5-9.7c-3.6-2.8-7.2-5.6-8.9-5.6V262.4z"/>
		<path class="st0" d="M3.2,305.8c8,0,14.3,4.9,20.5,9.7c3.6,2.8,7.2,5.6,8.9,5.6c1.7,0,5.3-2.8,8.9-5.6c6.2-4.9,12.4-9.7,20.5-9.7
			c8,0,14.3,4.9,20.5,9.7c3.6,2.8,7.2,5.6,8.9,5.6c1.7,0,5.3-2.8,8.9-5.6c6.2-4.9,12.4-9.7,20.5-9.7c8,0,14.2,4.9,20.5,9.7
			c3.6,2.8,7.2,5.6,8.9,5.6c1.7,0,5.3-2.8,8.9-5.6c6.2-4.9,12.4-9.7,20.5-9.7c8,0,14.2,4.9,20.5,9.7c3.6,2.8,7.2,5.6,8.9,5.6
			c1.7,0,5.3-2.8,8.9-5.6c6.2-4.9,12.4-9.7,20.5-9.7c8,0,14.3,4.9,20.5,9.7c3.6,2.8,7.2,5.6,8.9,5.6c1.7,0,5.3-2.8,8.9-5.6
			c6.2-4.9,12.4-9.7,20.5-9.7c8,0,14.3,4.9,20.5,9.7c3.6,2.8,7.2,5.6,8.9,5.6c1.7,0,5.3-2.8,8.9-5.6c6.2-4.9,12.4-9.7,20.5-9.7
			c8,0,14.3,4.9,20.5,9.7c3.6,2.8,7.2,5.6,8.9,5.6c1.7,0,5.3-2.8,8.9-5.6c6.2-4.9,12.4-9.7,20.5-9.7V326c-1.7,0-5.3,2.8-8.9,5.6
			c-6.2,4.9-12.4,9.7-20.5,9.7c-8,0-14.3-4.9-20.5-9.7c-3.6-2.8-7.2-5.6-8.9-5.6c-1.7,0-5.3,2.8-8.9,5.6c-6.2,4.9-12.4,9.7-20.5,9.7
			c-8,0-14.3-4.9-20.5-9.7c-3.6-2.8-7.2-5.6-8.9-5.6c-1.7,0-5.3,2.8-8.9,5.6c-6.2,4.9-12.4,9.7-20.5,9.7c-8,0-14.3-4.9-20.5-9.7
			c-3.6-2.8-7.2-5.6-8.9-5.6c-1.7,0-5.3,2.8-8.9,5.6c-6.2,4.9-12.4,9.7-20.5,9.7c-8,0-14.3-4.9-20.5-9.7c-3.6-2.8-7.2-5.6-8.9-5.6
			c-1.7,0-5.3,2.8-8.9,5.6c-6.2,4.9-12.4,9.7-20.5,9.7c-8,0-14.2-4.9-20.5-9.7c-3.6-2.8-7.2-5.6-8.9-5.6c-1.7,0-5.3,2.8-8.9,5.6
			c-6.2,4.9-12.4,9.7-20.5,9.7c-8,0-14.3-4.9-20.5-9.7c-3.6-2.8-7.2-5.6-8.9-5.6c-1.7,0-5.3,2.8-8.9,5.6c-6.2,4.9-12.4,9.7-20.5,9.7
			c-8,0-14.2-4.9-20.5-9.7c-3.6-2.8-7.2-5.6-8.9-5.6V305.8z"/>
	</g>
</g>
</svg>
