<svg height="512pt" viewBox="0 0 512 512" width="512pt" xmlns="http://www.w3.org/2000/svg"><path d="m462 351c-11.386719 0-21.886719 3.832031-30.300781 10.265625l-69.699219-40.859375v-70.453125c14.304688 10.261719 31.550781 15.921875 49.550781 15.921875 46.9375 0 85.125-38.1875 85.125-85.125s-38.1875-85.125-85.125-85.125c-5.195312 0-10.335937.46875-15.386719 1.398438-8.523437-25.246094-24.128906-47.894532-44.953124-64.914063-25.332032-20.707031-57.335938-32.109375-90.109376-32.109375-41.445312 0-79.839843 17.464844-106.910156 48.273438-9.183594-2.425782-18.644531-3.648438-28.242187-3.648438-60.996094 0-110.625 49.625-110.625 110.625s49.625 110.625 110.625 110.625c8.136719 0 16.195312-.898438 24.050781-2.640625v102.765625h-52.300781c-6.386719-20.265625-25.351563-35-47.699219-35-27.570312 0-50 22.429688-50 50s22.429688 50 50 50c22.347656 0 41.3125-14.734375 47.699219-35h82.300781v-136.328125c18.210938 12.625 39.070312 20.796875 61 23.90625v130.722656c-20.265625 6.386719-35 25.351563-35 47.699219 0 27.570312 22.429688 50 50 50s50-22.429688 50-50c0-22.347656-14.734375-41.3125-35-47.699219v-129.648437c21.644531-1.5 42.46875-7.914063 61-18.546875v71.488281l82.347656 48.273438c-1.519531 4.777343-2.347656 9.859374-2.347656 15.132812 0 27.570312 22.429688 50 50 50s50-22.429688 50-50-22.429688-50-50-50zm-412 50c-11.027344 0-20-8.972656-20-20s8.972656-20 20-20 20 8.972656 20 20-8.972656 20-20 20zm226 61c0 11.027344-8.972656 20-20 20s-20-8.972656-20-20 8.972656-20 20-20 20 8.972656 20 20zm-20-294c-11.027344 0-20-8.972656-20-20s8.972656-20 20-20 20 8.972656 20 20-8.972656 20-20 20zm90.359375 47.894531c-19.246094 22.332031-46.292969 36.101563-75.359375 38.664063v-58.859375c20.265625-6.386719 35-25.351563 35-47.699219 0-27.570312-22.429688-50-50-50s-50 22.429688-50 50c0 22.347656 14.734375 41.3125 35 47.699219v57.496093c-20.527344-3.714843-39.707031-13.082031-55.390625-27.285156l-8.296875-7.515625-9.5625 5.816407c-12.558594 7.628906-27.011719 11.664062-41.800781 11.664062-44.457031 0-80.625-36.167969-80.625-80.625s36.167969-80.625 80.625-80.625c9.683593 0 19.160156 1.707031 28.179687 5.070312l10.464844 3.902344 6.738281-8.90625c21.492188-28.402344 54.210938-44.691406 89.769531-44.691406 25.875 0 51.132813 9 71.125 25.339844 19.726563 16.121094 33.519532 38.625 38.847657 63.367187l3.726562 17.3125 16.464844-6.523437c6.480469-2.570313 13.304687-3.871094 20.285156-3.871094 30.394531 0 55.125 24.730469 55.125 55.125s-24.730469 55.125-55.125 55.125c-16.371093 0-31.796875-7.21875-42.316406-19.808594l-11.332031-13.5625zm115.640625 205.105469c-11.027344 0-20-8.972656-20-20s8.972656-20 20-20 20 8.972656 20 20-8.972656 20-20 20zm0 0"/></svg>