<svg xmlns="http://www.w3.org/2000/svg" xmlns:xlink="http://www.w3.org/1999/xlink" width="70" height="70" viewBox="0 0 70 70"><defs><style>.a,.d{fill:#4285f4;}.a{stroke:#707070;}.b{clip-path:url(#a);}.c{fill:none;}</style><clipPath id="a"><rect class="a" width="70" height="70" transform="translate(1078 2409)"/></clipPath></defs><g class="b" transform="translate(-1078 -2409)"><g transform="translate(1078 2409)"><path class="c" d="M0,0H70V70H0Z"/><path class="d" d="M67.083,17.5V5.833a2.925,2.925,0,0,0-2.917-2.917H52.5a2.925,2.925,0,0,0-2.917,2.917V8.75H20.417V5.833A2.925,2.925,0,0,0,17.5,2.917H5.833A2.925,2.925,0,0,0,2.917,5.833V17.5a2.925,2.925,0,0,0,2.917,2.917H8.75V49.583H5.833A2.925,2.925,0,0,0,2.917,52.5V64.167a2.925,2.925,0,0,0,2.917,2.917H17.5a2.925,2.925,0,0,0,2.917-2.917V61.25H49.583v2.917A2.925,2.925,0,0,0,52.5,67.083H64.167a2.925,2.925,0,0,0,2.917-2.917V52.5a2.925,2.925,0,0,0-2.917-2.917H61.25V20.417h2.917A2.925,2.925,0,0,0,67.083,17.5ZM8.75,8.75h5.833v5.833H8.75Zm5.833,52.5H8.75V55.417h5.833Zm35-5.833H20.417V52.5A2.925,2.925,0,0,0,17.5,49.583H14.583V20.417H17.5A2.925,2.925,0,0,0,20.417,17.5V14.583H49.583V17.5A2.925,2.925,0,0,0,52.5,20.417h2.917V49.583H52.5A2.925,2.925,0,0,0,49.583,52.5ZM61.25,61.25H55.417V55.417H61.25ZM55.417,14.583V8.75H61.25v5.833ZM37.742,22.313a2.975,2.975,0,0,0-2.771-1.9h0a2.908,2.908,0,0,0-2.742,1.9L24.15,43.692a2.185,2.185,0,0,0,2.042,2.975h0a2.2,2.2,0,0,0,2.071-1.458l1.6-4.375H40.046l1.633,4.4a2.217,2.217,0,0,0,2.071,1.429h.029a2.212,2.212,0,0,0,2.071-2.975ZM31.179,37.158,35,25.988l3.792,11.171Z"/></g></g></svg>