<svg height="682pt" viewBox="-41 -21 682 682.66669" width="682pt" xmlns="http://www.w3.org/2000/svg"><path d="m524 338.75h-150v263.75h-37.5v-188.75h-150v188.75h-37.5v-113.75h-150v151.25h600v-37.5h-75zm-412.5 263.75h-75v-76.25h75zm300-226.25h75v226.25h-75zm-187.5 75h75v151.25h-75zm0 0"/><path d="m524 0h-150v75h-75v226.25h300v-226.25h-75zm-112.5 37.5h75v37.5h-75zm-75 226.25v-68.890625l112.5 32.140625 112.5-32.140625v68.890625zm225-107.890625-112.5 32.140625-112.5-32.140625v-43.359375h225zm0 0"/></svg>