<?xml version="1.0" encoding="iso-8859-1"?>
<!-- Generator: Adobe Illustrator 19.0.0, SVG Export Plug-In . SVG Version: 6.00 Build 0)  -->
<svg version="1.1" id="Capa_1" xmlns="http://www.w3.org/2000/svg" xmlns:xlink="http://www.w3.org/1999/xlink" x="0px" y="0px"
	 viewBox="0 0 512.001 512.001" style="enable-background:new 0 0 512.001 512.001;" xml:space="preserve">
<g>
	<g>
		<path d="M296.583,152.383c4.198-7.005,6.619-15.193,6.619-23.937c0-25.758-20.956-46.715-46.715-46.715
			s-46.715,20.956-46.715,46.715c0,8.768,2.433,16.978,6.653,23.996c-20.325,10.686-34.226,32.002-34.226,56.517v15.01h148.724
			v-15.01C330.924,184.399,316.972,163.049,296.583,152.383z M256.488,111.753c9.204,0,16.694,7.488,16.694,16.694
			s-7.488,16.693-16.694,16.693s-16.694-7.488-16.694-16.693C239.795,119.242,247.283,111.753,256.488,111.753z M215.742,193.947
			c5.537-11.126,17.03-18.787,30.278-18.787h21.086c13.248,0,24.741,7.662,30.278,18.787H215.742z"/>
	</g>
</g>
<g>
	<g>
		<path d="M477.658,152.382c4.198-7.005,6.618-15.193,6.618-23.937c0-25.758-20.955-46.715-46.714-46.715
			c-24.696,0-44.965,19.267-46.596,43.558c-20.651-63.057-83.723-104.954-152.023-96.588
			c-56.656,6.939-101.474,46.576-117.864,97.663c-1.094-24.795-21.6-44.632-46.661-44.632c-25.758,0-46.715,20.956-46.715,46.715
			c0,8.768,2.433,16.977,6.653,23.996C14.031,163.128,0.13,184.445,0.13,208.958v15.01h125.091
			c7.657,18.391,19.025,34.686,33.074,48.072l-19.299,24.932l-25.754-19.543L0,422.281l73.902,57.774l114.075-145.916
			l-25.064-19.018l19.171-24.768c21.754,13.366,47.205,20.981,73.999,20.981c5.725,0,11.523-0.348,17.345-1.062
			c37.605-4.605,71.165-23.579,94.5-53.426c7.972-10.197,14.421-21.247,19.278-32.876h124.794v-15.01
			C512,184.399,498.046,163.049,477.658,152.382z M74.418,111.753c9.203,0,16.693,7.488,16.693,16.694s-7.488,16.693-16.693,16.693
			c-9.204,0-16.694-7.488-16.694-16.693C57.724,119.242,65.214,111.753,74.418,111.753z M33.671,193.947
			c5.537-11.126,17.03-18.787,30.278-18.787h21.087c13.248,0,24.741,7.662,30.278,18.787H33.671z M68.739,437.915L42.14,417.12
			l76.528-97.887l26.898,20.411L68.739,437.915z M366.153,189.988c-0.948,3.036-1.671,6.17-2.156,9.382
			c-3.877,13.985-10.512,27.205-19.721,38.983c-18.395,23.53-44.852,38.488-74.497,42.118
			c-61.186,7.486-117.084-36.194-124.579-97.393c-7.494-61.198,36.195-117.084,97.393-124.579c4.595-0.562,9.157-0.837,13.674-0.837
			c55.643,0,103.973,41.627,110.906,98.231C368.583,167.42,368.208,178.889,366.153,189.988z M437.563,111.753
			c9.203,0,16.693,7.488,16.693,16.694s-7.488,16.693-16.693,16.693c-9.204,0-16.694-7.488-16.694-16.693
			C420.869,119.242,428.359,111.753,437.563,111.753z M396.815,193.947c5.537-11.126,17.03-18.787,30.278-18.787h21.087
			c13.248,0,24.741,7.662,30.278,18.787H396.815z"/>
	</g>
</g>
<g>
	<g>
		<path d="M296.583,412.775c4.198-7.006,6.619-15.193,6.619-23.937c0-25.758-20.956-46.714-46.715-46.714
			s-46.715,20.956-46.715,46.714c0,8.768,2.433,16.978,6.653,23.996c-20.325,10.686-34.226,32.002-34.226,56.516v15.01h148.724
			v-15.01C330.924,444.791,316.972,423.442,296.583,412.775z M256.488,372.146c9.204,0,16.694,7.488,16.694,16.693
			c0,9.204-7.488,16.694-16.694,16.694s-16.694-7.488-16.694-16.694S247.283,372.146,256.488,372.146z M215.742,454.34
			c5.537-11.126,17.03-18.787,30.278-18.787h21.086c13.248,0,24.741,7.662,30.278,18.787H215.742z"/>
	</g>
</g>
<g>
	<g>
		<path d="M477.658,412.775c4.198-7.005,6.619-15.193,6.619-23.937c0-25.758-20.955-46.714-46.714-46.714
			s-46.715,20.956-46.715,46.714c0,8.768,2.433,16.978,6.653,23.996c-20.325,10.686-34.226,32.002-34.226,56.516v15.01H512v-15.01
			C512,444.791,498.046,423.441,477.658,412.775z M437.563,372.146c9.203,0,16.693,7.488,16.693,16.693
			c0,9.204-7.488,16.694-16.693,16.694c-9.204,0-16.694-7.488-16.694-16.694S428.359,372.146,437.563,372.146z M396.815,454.34
			c5.537-11.126,17.03-18.787,30.278-18.787h21.087c13.248,0,24.741,7.662,30.278,18.787H396.815z"/>
	</g>
</g>
<g>
</g>
<g>
</g>
<g>
</g>
<g>
</g>
<g>
</g>
<g>
</g>
<g>
</g>
<g>
</g>
<g>
</g>
<g>
</g>
<g>
</g>
<g>
</g>
<g>
</g>
<g>
</g>
<g>
</g>
</svg>
